<?xml version="1.0" encoding="utf-8"?>
<!-- Generator: Adobe Illustrator 28.0.0, SVG Export Plug-In . SVG Version: 6.00 Build 0)  -->
<svg version="1.1" id="Layer_1" xmlns="http://www.w3.org/2000/svg" xmlns:xlink="http://www.w3.org/1999/xlink" x="0px" y="0px"
	 viewBox="0 0 1650 285.2" style="enable-background:new 0 0 1650 285.2;" xml:space="preserve">
<style type="text/css">
	.st0{fill:#FFFFFF;}
	.st1{fill:#5492D6;}
	.st2{fill:#70A94C;}
	.st3{fill:#DE484B;}
</style>
<g>
	<path class="st0" d="M1492.6,7h-73.7l-145.8,256V7h-63.4l-100.1,117.3L1007.8,7h-59.3v271.2h63.1v-176l99.2,117.9l99.7-116.7v174.8
		h132.8l36.9-65.9h157.6l36.8,65.9h75.5L1492.6,7z M1408.5,159.3l48.7-87.3l47.9,87.3H1408.5z"/>
	<path class="st0" d="M768.7,0c-41.9,0-80.1,14-108.9,37c-1.9,1.5-3.8,3.1-5.6,4.7c-6.4,5.7-12.3,11.8-17.5,18.3
		c-3,3.7-5.8,7.6-8.4,11.6s-5,8.1-7.2,12.3c-0.5,1.1-1.1,2.1-1.6,3.2c-1,2.1-2,4.3-2.9,6.5c-0.5,1.1-0.9,2.2-1.3,3.3
		c-0.8,2.2-1.6,4.4-2.4,6.7c-4,12.4-6.1,25.5-6.1,39s2.1,26.6,6.1,39c0.7,2.3,1.5,4.5,2.4,6.7c0.4,1.1,0.9,2.2,1.3,3.3
		c0.9,2.2,1.9,4.3,2.9,6.5c0.5,1.1,1,2.1,1.6,3.2c2.2,4.2,4.5,8.3,7.2,12.3c2.6,4,5.4,7.8,8.4,11.6c5.3,6.5,11.1,12.6,17.5,18.3
		c1.8,1.6,3.7,3.2,5.6,4.7c28.8,23,67,37,108.9,37c89.4,0,161.9-63.9,161.9-142.6S858.1,0,768.7,0z M731,219.4
		c-0.9-0.4-1.8-0.8-2.7-1.2c-2.4-1.1-4.7-2.4-7-3.7c-0.8-0.4-1.5-0.9-2.3-1.4c-1.1-0.7-2.1-1.4-3.2-2.1c-0.7-0.5-1.4-0.9-2-1.4
		c-3.1-2.2-6-4.6-8.7-7.2c-0.5-0.5-1.1-1-1.6-1.6c-2-2-3.9-4-5.7-6.1c-1.6-1.9-3.1-3.9-4.5-5.9c-0.6-0.8-1.1-1.6-1.6-2.4
		c-0.8-1.2-1.5-2.4-2.2-3.6s-1.4-2.4-2-3.7s-1.2-2.5-1.8-3.8c-0.9-1.9-1.6-3.8-2.3-5.8c-0.2-0.7-0.5-1.3-0.7-2
		c-0.9-2.7-1.6-5.4-2.2-8.1c-0.5-2.1-0.8-4.2-1.1-6.3c-0.2-1.4-0.3-2.8-0.5-4.3c-0.2-2.1-0.3-4.3-0.3-6.5c0-14.6,3.9-28.4,10.9-40.4
		c0.7-1.2,1.4-2.4,2.2-3.6c0.4-0.6,0.8-1.2,1.2-1.7c1.6-2.3,3.2-4.5,5-6.7c1.8-2.1,3.7-4.2,5.7-6.2c16.4-16.2,39.6-26.3,65.3-26.3
		v169.6C755.2,227.2,742.4,224.4,731,219.4L731,219.4z M768.7,280.9v-49.4c52.3,0,94.8-39.9,94.8-89.1S821,53.2,768.7,53.2V4.3
		c86.7,0,157,61.9,157,138.3S855.4,280.9,768.7,280.9L768.7,280.9z"/>
</g>
<g>
	<path class="st0" d="M529.3,175.4c0.6,0.9,12.1-4.7,13.4-5.3c3.9-1.9,7.7-4,11.2-6.4c14.7-9.8,25.6-24.3,30.9-41.2
		c5.1-16.4,5.3-35.2,0.7-51.7c-4.7-16.7-15.5-30.7-29.5-40.7c-12.3-8.7-26.6-14.5-41.1-18.3c-15.5-4-31.2-4.8-47-4.8H309.9v262.2
		L169,122.3L296.9,7h-90.6L69.8,130.8V7H56.9v271.2h13v-68.3l51.6-47l109.7,115.3h147.2v-94.4H463l67.1,94.4h76.5
		C606.6,278.2,529.3,175.4,529.3,175.4L529.3,175.4z M504.8,124.2c-10.1,7.8-21.2,8.1-33.5,8.1h-93.7V60.6h79.7
		c18.9,0,42.6-2.5,55.3,15.2c4.4,6.2,5.6,13.2,6,20.7C519.2,107.4,513.3,117.7,504.8,124.2L504.8,124.2z"/>
	<rect x="38" y="7" class="st1" width="8.2" height="271.2"/>
	<rect x="19" y="7" class="st2" width="8.2" height="271.2"/>
	<rect y="7" class="st3" width="8.1" height="271.2"/>
</g>
</svg>
