<?xml version="1.0" encoding="UTF-8"?>
<svg id="Layer_1" data-name="Layer 1" xmlns="http://www.w3.org/2000/svg" viewBox="0 0 1650 285.22">
  <defs>
    <style>
      .cls-1 {
        fill: #f4dc4a;
      }

      .cls-1, .cls-2 {
        stroke-width: 0px;
      }

      .cls-2 {
        fill: #fff;
      }
    </style>
  </defs>
  <path class="cls-2" d="m154.13,99.79s15.01-36.01,15.01-36.02c.63-1.51-23.59-8.71-24.82-9.02-28.41-7.14-60.38-11.18-89.3-4.64-11.04,2.49-21.82,6.58-31.2,12.9C4.61,75.94-4.91,100.4,2.53,122.33c4.97,14.63,16.26,25.87,30.47,32.13,11.57,5.09,24.24,6.73,36.79,7.44,12.64.72,25.66-.01,38.16,2.15,8.85,1.53,22.79,5.82,22.35,16.9,0,0,1.58,14.77-30.01,20.21,0,0-41.27,5.05-85.5-15.35,0,0-13.82,36.92-13.82,36.92-.62,1.67,30.29,11.91,32.13,12.45,24.8,7.24,51.02,10.14,76.77,7.17,16.14-1.87,31.2-6.46,44.46-15.92,17.67-12.61,27.04-34.51,24.52-55.83-1.37-11.58-6.99-22.27-15.72-30.14-19.28-17.4-45.29-18.88-70.01-20.16-7.28-.38-14.56-.75-21.85-1.13-7.43-.38-17.47-2.76-21.19-9.95-5.17-9.97,5.41-18.13,14.15-20.51,7.79-2.12,16.09-2.07,24.11-2.05,13.07.04,26.08,1.74,38.75,4.89,2.22.55,27.49,7.18,27.05,8.24Z"/>
  <polygon class="cls-2" points="193.23 243.51 193.23 46.81 237.47 46.81 306.71 129.18 376.22 46.81 418.08 46.81 418.08 243.51 371.21 243.51 371.21 122.6 306.71 197.1 240.62 122.6 240.62 243.51 193.23 243.51"/>
  <rect class="cls-2" x="432.06" y="46.81" width="48.71" height="196.69"/>
  <polygon class="cls-2" points="494.76 46.81 494.76 243.51 657.73 243.51 657.73 198.42 545.05 198.42 545.05 46.81 494.76 46.81"/>
  <polygon class="cls-2" points="671.72 46.81 671.72 243.51 834.69 243.51 834.69 197.64 720.69 197.64 720.69 162.7 813.89 162.7 813.89 123.27 720.69 123.27 720.69 92.68 834.69 92.68 834.69 46.81 671.72 46.81"/>
  <polygon class="cls-2" points="1487.03 46.81 1487.03 243.51 1650 243.51 1650 197.64 1536 197.64 1536 162.7 1629.2 162.7 1629.2 123.27 1536 123.27 1536 92.68 1650 92.68 1650 46.81 1487.03 46.81"/>
  <g>
    <path class="cls-1" d="m1231.1,150.86c-2.57,0-4.89,1.58-5.75,3.97-6.88,19.08-27.44,32.93-51.75,32.93s-44.87-13.85-51.75-32.93c-.86-2.39-3.18-3.97-5.75-3.97h0c-4.28,0-7.24,4.23-5.74,8.19,8.74,23.11,33.75,39.8,63.24,39.8s54.5-16.68,63.24-39.8c1.5-3.96-1.46-8.19-5.74-8.19h0Z"/>
    <g>
      <path class="cls-1" d="m1154.44,129.67l-6.11-6.11c-.41-.41-.41-1.07,0-1.48l6.11-6.11c2-2,2-5.25,0-7.25h0c-2-2-5.25-2-7.25,0l-6.11,6.11c-.41.41-1.07.41-1.48,0l-6.11-6.11c-2-2-5.25-2-7.25,0h0c-2,2-2,5.25,0,7.25l6.11,6.11c.41.41.41,1.07,0,1.48l-6.11,6.11c-2,2-2,5.25,0,7.25h0c2,2,5.25,2,7.25,0l6.11-6.11c.41-.41,1.07-.41,1.48,0l6.11,6.11c2,2,5.25,2,7.25,0h0c2-2,2-5.25,0-7.25Z"/>
      <path class="cls-1" d="m1220.98,129.67l-6.11-6.11c-.41-.41-.41-1.07,0-1.48l6.11-6.11c2-2,2-5.25,0-7.25h0c-2-2-5.25-2-7.25,0l-6.11,6.11c-.41.41-1.07.41-1.48,0l-6.11-6.11c-2-2-5.25-2-7.25,0h0c-2,2-2,5.25,0,7.25l6.11,6.11c.41.41.41,1.07,0,1.48l-6.11,6.11c-2,2-2,5.25,0,7.25h0c2,2,5.25,2,7.25,0l6.11-6.11c.41-.41,1.07-.41,1.48,0l6.11,6.11c2,2,5.25,2,7.25,0h0c2-2,2-5.25,0-7.25Z"/>
    </g>
    <path class="cls-1" d="m1173.6,46.81c-61.68,0-111.68,44.03-111.68,98.35s50,98.35,111.68,98.35,111.68-44.03,111.68-98.35-50-98.35-111.68-98.35Zm0,165.59c-42.49,0-76.93-30.18-76.93-67.41s34.44-67.41,76.93-67.41,76.93,30.18,76.93,67.41-34.44,67.41-76.93,67.41Z"/>
  </g>
  <path class="cls-2" d="m1421.11,168.9c.43.62,8.14-3.4,9.02-3.85,2.61-1.35,5.15-2.88,7.56-4.61,9.9-7.11,17.23-17.59,20.77-29.83,3.44-11.88,3.55-25.53.45-37.46-3.15-12.13-10.39-22.26-19.85-29.49-8.27-6.32-17.85-10.49-27.61-13.23-10.39-2.92-20.95-3.52-31.56-3.52h-106.19v31.55c16.21,18.41,25.86,41.51,25.86,66.6s-9.65,48.2-25.86,66.6v31.74h46.03v-68.44h56.85l45.06,68.44h51.4s-51.92-74.51-51.93-74.51Zm-16.46-37.06c-6.82,5.68-14.23,5.88-22.49,5.88h-62.92v-51.98h53.54c12.72,0,28.65-1.83,37.11,11.03,2.96,4.5,3.73,9.58,4,14.96.39,7.94-3.52,15.35-9.24,20.11Z"/>
  <path class="cls-2" d="m1047.67,145.16c0-25.09,9.65-48.2,25.86-66.6v-31.74h-41.86l-69.51,82.36-69.24-82.36h-44.23v196.69h47.39v-120.91l66.08,74.51,64.5-74.51v120.91h46.86v-31.74c-16.21-18.41-25.86-41.51-25.86-66.6Z"/>
</svg>